<svg xmlns="http://www.w3.org/2000/svg" xmlns:xlink="http://www.w3.org/1999/xlink" width="500" zoomAndPan="magnify" viewBox="0 0 375 374.999991" height="500" preserveAspectRatio="xMidYMid meet" version="1.0"><defs><clipPath id="16f4c53b2e"><path d="M 0.238281 0.238281 L 331.441406 0.238281 L 331.441406 331.441406 L 0.238281 331.441406 Z M 0.238281 0.238281 " clip-rule="nonzero"/></clipPath><clipPath id="3fe2f4d131"><path d="M 0.28125 165.820312 L 165.824219 0.277344 L 331.367188 165.820312 L 165.824219 331.363281 Z M 0.28125 165.820312 " clip-rule="nonzero"/></clipPath><clipPath id="31dc1a34b3"><path d="M 0.238281 0.238281 L 331.441406 0.238281 L 331.441406 331.441406 L 0.238281 331.441406 Z M 0.238281 0.238281 " clip-rule="nonzero"/></clipPath><clipPath id="91c4a8c019"><path d="M 0.28125 165.820312 L 165.824219 0.277344 L 331.367188 165.820312 L 165.824219 331.363281 Z M 0.28125 165.820312 " clip-rule="nonzero"/></clipPath><clipPath id="1a9170ddb0"><rect x="0" width="332" y="0" height="332"/></clipPath><clipPath id="35bf0b4f51"><rect x="0" width="332" y="0" height="332"/></clipPath></defs><rect x="-37.5" width="450" fill="#ffffff" y="-37.499999" height="449.999989" fill-opacity="1"/><rect x="-37.5" width="450" fill="#ffffff" y="-37.499999" height="449.999989" fill-opacity="1"/><g transform="matrix(1, 0, 0, 1, 18, 18)"><g clip-path="url(#35bf0b4f51)"><g clip-path="url(#16f4c53b2e)"><g clip-path="url(#3fe2f4d131)"><g><g clip-path="url(#1a9170ddb0)"><g clip-path="url(#31dc1a34b3)"><g clip-path="url(#91c4a8c019)"><path fill="#876efe" d="M 0.28125 165.820312 L 165.824219 0.277344 L 331.367188 165.820312 L 165.824219 331.363281 Z M 0.28125 165.820312 " fill-opacity="1" fill-rule="nonzero"/></g></g></g></g></g></g><path stroke-linecap="butt" transform="matrix(0.00000000343943, -1.97065, 1.97065, 0.00000000343943, 161.878236, 307.676727)" fill="none" stroke-linejoin="miter" d="M 0.000479725 2.000394 L 139.239131 2.000394 " stroke="#ffffff" stroke-width="4" stroke-opacity="1" stroke-miterlimit="4"/><path stroke-linecap="butt" transform="matrix(1.39346, -1.39346, 1.39346, 1.39346, 161.919324, 247.950218)" fill="none" stroke-linejoin="miter" d="M -0.000127793 2.000693 L 60.194577 2.000693 " stroke="#ffffff" stroke-width="4" stroke-opacity="1" stroke-miterlimit="4"/><path stroke-linecap="butt" transform="matrix(1.39346, -1.39346, 1.39346, 1.39346, 163.032283, 129.22836)" fill="none" stroke-linejoin="miter" d="M 0.000274288 2.000522 L 31.811829 2.000522 " stroke="#ffffff" stroke-width="4" stroke-opacity="1" stroke-miterlimit="4"/><path stroke-linecap="butt" transform="matrix(-1.296691, -1.483932, 1.483932, -1.296691, 161.737375, 184.920572)" fill="none" stroke-linejoin="miter" d="M -0.000955292 2.000373 L 45.298649 2.001242 " stroke="#ffffff" stroke-width="4" stroke-opacity="1" stroke-miterlimit="4"/></g></g></svg>